Coordinates
version=1
nRows=21
nColumns=27
inDegrees=yes

Units are S.I. units (second, meters, Newtons, ...)
If the header above contains a line with 'inDegrees', this indicates whether rotational values are in degrees (yes) or radians (no).

endheader
time	pelvis_rotation	pelvis_tilt	pelvis_list	pelvis_tx	pelvis_ty	pelvis_tz	hip_flexion_r	hip_adduction_r	hip_rotation_r	knee_angle_r	knee_rotation_r	knee_adduction_r	knee_angle_r_beta	ankle_angle_r	subtalar_angle_r	mtp_angle_r	hip_flexion_l	hip_adduction_l	hip_rotation_l	knee_angle_l	knee_rotation_l	knee_adduction_l	knee_angle_l_beta	ankle_angle_l	subtalar_angle_l	mtp_angle_l
      9.80000000	      4.63319844	      0.84416006	      0.07299359	     -0.01240345	      0.90850282	     -1.20171045	      7.84056678	     -4.68076674	    -28.27161009	     10.23741582	      0.00000000	      8.73244072	      0.17867661	     -0.36102091	      0.00000000	      0.00000000	      9.20254534	     -4.00112678	    -13.82638214	      8.80540502	      0.00000000	     -6.35883918	      0.15368331	     -3.98299009	      0.00000000	      0.00000000
      9.80500000	      4.63441656	      0.87121263	      0.08454394	     -0.01225322	      0.90851955	     -1.20168646	      7.80215201	     -4.68953540	    -28.27324828	     10.23435881	      0.00000000	      8.73465850	      0.17862326	     -0.34694689	      0.00000000	      0.00000000	      9.15298340	     -3.98871326	    -13.81810419	      8.77873741	      0.00000000	     -6.34461194	      0.15321787	     -3.99432216	      0.00000000	      0.00000000
      9.81000000	      4.64024941	      0.89092450	      0.08176109	     -0.01211787	      0.90851921	     -1.20160415	      7.78491154	     -4.68813375	    -28.33269763	     10.25775579	      0.00000000	      8.74903038	      0.17903161	     -0.35174745	      0.00000000	      0.00000000	      9.10632417	     -3.99395453	    -13.79857764	      8.74534587	      0.00000000	     -6.34362294	      0.15263508	     -3.99430590	      0.00000000	      0.00000000
      9.81500000	      4.68024561	      0.90514231	      0.11291668	     -0.01194330	      0.90855192	     -1.20165150	      7.72951062	     -4.71775127	    -28.29662167	     10.21770966	      0.00000000	      8.72631548	      0.17833268	     -0.34399124	      0.00000000	      0.00000000	      9.04220577	     -3.93925540	    -13.66624153	      8.66153589	      0.00000000	     -6.24421242	      0.15117232	     -4.05305646	      0.00000000	      0.00000000
      9.82000000	      4.64544753	      0.93553766	      0.09903894	     -0.01174443	      0.90858000	     -1.20158822	      7.67895194	     -4.68502425	    -28.29469805	     10.18478564	      0.00000000	      8.74242457	      0.17775804	     -0.34725464	      0.00000000	      0.00000000	      9.01513676	     -3.97484285	    -13.83663749	      8.70372002	      0.00000000	     -6.35216447	      0.15190857	     -4.01456553	      0.00000000	      0.00000000
      9.82500000	      4.64140246	      0.93852739	      0.10260713	     -0.01153477	      0.90860059	     -1.20153616	      7.65000175	     -4.67479642	    -28.29405195	     10.15722749	      0.00000000	      8.74021798	      0.17727706	     -0.34310173	      0.00000000	      0.00000000	      8.98046832	     -3.97299848	    -13.85471758	      8.67043881	      0.00000000	     -6.36324407	      0.15132770	     -4.02070369	      0.00000000	      0.00000000
      9.83000000	      4.66092391	      0.94088265	      0.12892500	     -0.01140479	      0.90862122	     -1.20153590	      7.63576002	     -4.70594433	    -28.31061931	     10.15839921	      0.00000000	      8.74072054	      0.17729751	     -0.33469021	      0.00000000	      0.00000000	      8.94978549	     -3.93722557	    -13.78969175	      8.62759794	      0.00000000	     -6.31510986	      0.15057999	     -4.04339786	      0.00000000	      0.00000000
      9.83500000	      4.67599765	      0.93432601	      0.14253605	     -0.01126955	      0.90865600	     -1.20153232	      7.62633155	     -4.72074171	    -28.31263928	     10.15383842	      0.00000000	      8.73698547	      0.17721791	     -0.33121456	      0.00000000	      0.00000000	      8.92226129	     -3.91441563	    -13.72389701	      8.57716746	      0.00000000	     -6.25917111	      0.14969981	     -4.06566925	      0.00000000	      0.00000000
      9.84000000	      4.47407487	      0.55952411	      0.10456544	     -0.01213790	      0.90857209	     -1.20117010	      8.15118037	     -4.61930811	    -27.23260235	     10.29820546	      0.00000000	      7.84451631	      0.17973759	     -0.31933141	      0.00000000	      0.00000000	      9.43522612	     -4.03855091	    -13.64655775	      8.80358675	      0.00000000	     -5.88779336	      0.15365157	     -4.02221027	      0.00000000	      0.00000000
      9.84500000	      4.67699780	      0.91605440	      0.16508865	     -0.01090394	      0.90871299	     -1.20146724	      7.60631350	     -4.72801231	    -28.31952371	     10.12483099	      0.00000000	      8.74847731	      0.17671164	     -0.30876456	      0.00000000	      0.00000000	      8.86639257	     -3.88586677	    -13.68369603	      8.48061596	      0.00000000	     -6.20951011	      0.14801467	     -4.10299671	      0.00000000	      0.00000000
      9.85000000	      4.48781269	      0.51302810	      0.05986219	     -0.01187508	      0.90861089	     -1.20106428	      8.16230160	     -4.55919039	    -27.25044055	     10.25480731	      0.00000000	      7.83507412	      0.17898015	     -0.35005835	      0.00000000	      0.00000000	      9.50350071	     -4.09934904	    -13.68125633	      8.87780522	      0.00000000	     -5.87953790	      0.15494693	     -3.96097297	      0.00000000	      0.00000000
      9.85500000	      4.66728164	      0.89702179	      0.16044070	     -0.01054961	      0.90875581	     -1.20137782	      7.59319249	     -4.71023222	    -28.32664615	     10.10011130	      0.00000000	      8.74513820	      0.17628020	     -0.31377015	      0.00000000	      0.00000000	      8.88101079	     -3.90624616	    -13.76852546	      8.52319613	      0.00000000	     -6.27421032	      0.14875784	     -4.06690041	      0.00000000	      0.00000000
      9.86000000	      4.50643417	      0.50013423	      0.11775022	     -0.01151947	      0.90865346	     -1.20106654	      8.15862598	     -4.62695124	    -27.28488241	     10.28467930	      0.00000000	      7.85476828	      0.17950152	     -0.29040863	      0.00000000	      0.00000000	      9.43774092	     -4.02451560	    -13.58787579	      8.76779298	      0.00000000	     -5.82188330	      0.15302686	     -4.00680591	      0.00000000	      0.00000000
      9.86500000	      4.67397360	      0.88085624	      0.15109919	     -0.01022021	      0.90879800	     -1.20129496	      7.58049105	     -4.69154499	    -28.34176830	     10.08877936	      0.00000000	      8.75304952	      0.17608242	     -0.30501103	      0.00000000	      0.00000000	      8.86645743	     -3.91912991	    -13.74675429	      8.50491860	      0.00000000	     -6.25088698	      0.14843883	     -4.06272059	      0.00000000	      0.00000000
      9.87000000	      4.67401685	      0.86782822	      0.15951146	     -0.01006090	      0.90881150	     -1.20128411	      7.58635159	     -4.70043342	    -28.34209473	     10.09780529	      0.00000000	      8.74931809	      0.17623995	     -0.28767204	      0.00000000	      0.00000000	      8.86768229	     -3.91141758	    -13.74869578	      8.50122266	      0.00000000	     -6.24802850	      0.14837433	     -4.05794303	      0.00000000	      0.00000000
      9.87500000	      4.49985007	      0.48749828	      0.13335844	     -0.01099251	      0.90868732	     -1.20098951	      8.15923047	     -4.64701317	    -27.34081847	     10.33085042	      0.00000000	      7.89056391	      0.18030735	     -0.25220908	      0.00000000	      0.00000000	      9.42990001	     -4.02121352	    -13.65802398	      8.79842202	      0.00000000	     -5.85954009	      0.15356143	     -3.97630810	      0.00000000	      0.00000000
      9.88000000	      4.51743762	      0.48709115	      0.16442654	     -0.01084476	      0.90871494	     -1.20103843	      8.14452151	     -4.67972838	    -27.29143092	     10.33011086	      0.00000000	      7.83826498	      0.18029445	     -0.23406914	      0.00000000	      0.00000000	      9.38661062	     -3.97296898	    -13.56152336	      8.72537619	      0.00000000	     -5.79589717	      0.15228654	     -4.01029760	      0.00000000	      0.00000000
      9.88500000	      4.68378994	      0.86411239	      0.16330240	     -0.00957395	      0.90883723	     -1.20121332	      7.56658095	     -4.70413722	    -28.36533838	     10.11956947	      0.00000000	      8.75722443	      0.17661981	     -0.25657572	      0.00000000	      0.00000000	      8.84842070	     -3.91383403	    -13.75532974	      8.51678855	      0.00000000	     -6.26004328	      0.14864600	     -4.02797689	      0.00000000	      0.00000000
      9.89000000	      4.68403478	      0.87247817	      0.17739402	     -0.00941251	      0.90884283	     -1.20119679	      7.55556610	     -4.72023457	    -28.36120924	     10.13833551	      0.00000000	      8.76700728	      0.17694734	     -0.23569514	      0.00000000	      0.00000000	      8.82372121	     -3.90073151	    -13.74693445	      8.50571064	      0.00000000	     -6.25307953	      0.14845266	     -4.03008779	      0.00000000	      0.00000000
      9.89500000	      4.51781927	      0.50600456	      0.15326272	     -0.01034018	      0.90872356	     -1.20093823	      8.10488813	     -4.67044703	    -27.36056996	     10.35745167	      0.00000000	      7.89271768	      0.18077163	     -0.19747204	      0.00000000	      0.00000000	      9.35593246	     -3.99983296	    -13.61707788	      8.76379911	      0.00000000	     -5.82995318	      0.15295715	     -3.97574600	      0.00000000	      0.00000000
      9.90000000	      4.68801395	      0.87733982	      0.05752417	     -0.00902234	      0.90888902	     -1.20100536	      7.46927181	     -4.55270966	    -28.33017580	     10.00878987	      0.00000000	      8.73517701	      0.17468634	     -0.31874357	      0.00000000	      0.00000000	      8.85909280	     -4.05284427	    -13.87953799	      8.63305712	      0.00000000	     -6.40228422	      0.15067527	     -3.91588898	      0.00000000	      0.00000000
